# xmcd
#
# Track frame offsets: 
#        150
#        17875
#        42113
#        60393
#        75399
#        96072
#        113365
#        127432
#        145413
#        165783
#        180594
#        202891
#        215637
#        223714
#
# Disc length: 3158 seconds
#
# Revision: 0
# Processed by: cddbd v1.5.2PL0 Copyright (c) Steve Scherf et al.
# Submitted via: ExactAudioCopy v0.99pb3
#
DISCID=ba0c540e
DTITLE=Christianssand String String Swing Ensemble - i Paris
DYEAR=2002
DGENRE=Folk
TTITLE0=La Mer
TTITLE1=La Vie en Rose
TTITLE2=I'm Gonna Sit Right Down
TTITLE3=Du Schwartzer Sigeuner
TTITLE4=Dream a Lot
TTITLE5=Hymne à l'amour
TTITLE6=Padam Padam
TTITLE7=I' se Muggin'
TTITLE8=La Chanson des Vieux Amants
TTITLE9=St Marie de la Mer
TTITLE10=Smile
TTITLE11=Fly Me to the Moon [Live]
TTITLE12=La vie en Rose [Live]
TTITLE13=Takea the A-train [Live]
EXTD=
EXTT0=
EXTT1=
EXTT2=
EXTT3=
EXTT4=
EXTT5=
EXTT6=
EXTT7=
EXTT8=
EXTT9=
EXTT10=
EXTT11=
EXTT12=
EXTT13=
PLAYORDER=
